<svg version="1.1" xmlns="http://www.w3.org/2000/svg" xmlns:xlink="http://www.w3.org/1999/xlink" width="48" height="48"><defs><linearGradient x1="14.61837" y1="14.2299" x2="54.59483" y2="54.98331" gradientUnits="userSpaceOnUse" id="color-1"><stop offset="0" stop-color="#000000" stop-opacity="0.3"></stop><stop offset="1" stop-color="#000000" stop-opacity="0"></stop></linearGradient><filter id="dropshadow-base"><feColorMatrix type="matrix" values="0 0 0 0 0  0 0 0 0 0  0 0 0 0 0  0 0 0 .8 0"></feColorMatrix> <feOffset dx="0" dy="1"></feOffset> <feGaussianBlur stdDeviation="1"></feGaussianBlur> <feComposite in="SourceGraphic"></feComposite></filter><filter id="dropshadow-banner" x="-10%" y="-10%" width="120%" height="130%"><feColorMatrix type="matrix" values="0 0 0 0 0  0 0 0 0 0  0 0 0 0 0  0 0 0 .4 0"></feColorMatrix> <feOffset dx="0" dy="1"></feOffset> <feGaussianBlur stdDeviation="0.5"></feGaussianBlur> <feComposite in="SourceGraphic"></feComposite></filter></defs><g fill="none" fill-rule="nonzero" stroke="none" stroke-width="none" stroke-linecap="butt" stroke-linejoin="miter" stroke-miterlimit="10" stroke-dasharray="" stroke-dashoffset="0" font-family="none" font-weight="none" font-size="none" text-anchor="none" style="mix-blend-mode: normal"><path d="M2,24c0,-12.15026 9.84974,-22 22,-22c12.15026,0 22,9.84974 22,22c0,12.15026 -9.84974,22 -22,22c-12.15026,0 -22,-9.84974 -22,-22z" id="base 1 5" fill="#2196f3" stroke-width="1"></path><path d="M23.92324,14.2299h1.86097l4.8354,4.8354l0.10083,-0.18299l1.02819,-1.86097h0.00465l1.62835,0.89327l11.85424,11.85424c-1.9565,7.21938 -7.49621,12.9651 -14.59215,15.21019l-11.7493,-11.7493c0.33404,0.33404 0.79509,0.54035 1.30686,0.54035c0.00309,0 0.00619,-0.00001 0.00928,-0.00002l-1.86095,-1.86095c0,-1.02819 0.82348,-1.86097 1.85167,-1.86097c0.05619,0 0.11179,0.00249 0.16671,0.00736l-1.48277,-1.48277c0,0 0,0 0,0c-0.33672,-0.33672 -0.54492,-0.80196 -0.54492,-1.31606c0,-0.32568 0.08374,-0.62808 0.22797,-0.89792l1.26081,-2.27969l-1.66857,-3.51559l-3.54215,-3.54215v-1.86097h3.03804l3.47537,3.47537l0,-1.61439h2.79146z" fill="url(#color-1)" stroke-width="1"></path><path d="M23.92323,21.67378h1.86097v-2.79146h2.79146v-1.86097h-2.79146v-2.79146h-1.86097v2.79146h-2.79146v1.86097h2.79146zM20.20129,30.04816c-1.02819,0 -1.85167,0.83279 -1.85167,1.86097c0,1.02819 0.82348,1.86097 1.85167,1.86097c1.02819,0 1.86097,-0.83279 1.86097,-1.86097c0,-1.02819 -0.83279,-1.86097 -1.86097,-1.86097zM29.50615,30.04816c-1.02819,0 -1.85167,0.83279 -1.85167,1.86097c0,1.02819 0.82348,1.86097 1.85167,1.86097c1.02819,0 1.86097,-0.83279 1.86097,-1.86097c0,-1.02819 -0.83279,-1.86097 -1.86097,-1.86097zM20.36412,27.02408c0,-0.04187 0.0093,-0.07909 0.02791,-0.11166l0.83744,-1.51669h6.93213c0.69786,0 1.30733,-0.38615 1.62835,-0.9584l3.59168,-6.52271l-1.62835,-0.89327h-0.00465l-1.02819,1.86097l-2.56349,4.65243h-6.52736l-0.12096,-0.25123l-2.08894,-4.4012l-0.88396,-1.86097l-0.87931,-1.86097h-3.03804v1.86097h1.86097l3.34975,7.05774l-1.26081,2.27969c-0.14423,0.26984 -0.22797,0.57225 -0.22797,0.89792c0,1.02819 0.83279,1.86097 1.86097,1.86097h11.16584v-1.86097h-10.77038c-0.13027,0 -0.23262,-0.10235 -0.23262,-0.23262z" fill="none" stroke-width="0"></path><path d="M23.92323,18.88232h-2.79146v-1.86097h2.79146v-2.79146h1.86097v2.79146h2.79146v1.86097h-2.79146v2.79146h-1.86097zM22.06226,31.90914c0,1.02819 -0.83279,1.86097 -1.86097,1.86097c-1.02819,0 -1.85167,-0.83279 -1.85167,-1.86097c0,-1.02819 0.82348,-1.86097 1.85167,-1.86097c1.02819,0 1.86097,0.83279 1.86097,1.86097zM31.36713,31.90914c0,1.02819 -0.83279,1.86097 -1.86097,1.86097c-1.02819,0 -1.85167,-0.83279 -1.85167,-1.86097c0,-1.02819 0.82348,-1.86097 1.85167,-1.86097c1.02819,0 1.86097,0.83279 1.86097,1.86097zM20.59675,27.2567h10.77038v1.86097h-11.16584c-1.02819,0 -1.86097,-0.83279 -1.86097,-1.86097c0,-0.32567 0.08374,-0.62808 0.22797,-0.89792l1.26081,-2.27969l-3.34975,-7.05774h-1.86097v-1.86097h3.03804l0.87931,1.86097l0.88396,1.86097l2.08894,4.4012l0.12096,0.25123h6.52736l2.56349,-4.65243l1.02819,-1.86097h0.00465l1.62835,0.89327l-3.59168,6.52271c-0.32102,0.57225 -0.93049,0.9584 -1.62835,0.9584h-6.93213l-0.83744,1.51669c-0.01861,0.03257 -0.02791,0.06979 -0.02791,0.11166c0,0.13027 0.10235,0.23262 0.23262,0.23262z" fill="#ffffff" stroke-width="0"></path><path d="M2,24c0,-12.15026 9.84974,-22 22,-22c12.15026,0 22,9.84974 22,22c0,12.15026 -9.84974,22 -22,22c-12.15026,0 -22,-9.84974 -22,-22z" id="base 1 1 1" fill="none" stroke-width="1"></path><g fill="#000000" stroke-width="1" font-family="Roboto, sans-serif" font-weight="400" font-size="14" text-anchor="start"></g><rect x="2" y="2" width="44" height="22" fill="none" stroke-width="1"></rect><path d="M2,24v-22h44v22z" fill="none" stroke-width="1"></path><path d="M2,24v-22h44v22z" fill="none" stroke-width="1"></path><path d="M2,24v-22h44v22z" fill="none" stroke-width="1"></path><path d="M2,24v-22h44v22z" fill="none" stroke-width="1"></path></g></svg>