<svg version="1.1" xmlns="http://www.w3.org/2000/svg" xmlns:xlink="http://www.w3.org/1999/xlink" width="48" height="48"><defs><linearGradient x1="14.22989" y1="14.22989" x2="54.98331" y2="54.98331" gradientUnits="userSpaceOnUse" id="color-1"><stop offset="0" stop-color="#000000" stop-opacity="0.3"></stop><stop offset="1" stop-color="#000000" stop-opacity="0"></stop></linearGradient><filter id="dropshadow-base"><feColorMatrix type="matrix" values="0 0 0 0 0  0 0 0 0 0  0 0 0 0 0  0 0 0 .8 0"></feColorMatrix> <feOffset dx="0" dy="1"></feOffset> <feGaussianBlur stdDeviation="1"></feGaussianBlur> <feComposite in="SourceGraphic"></feComposite></filter><filter id="dropshadow-banner" x="-10%" y="-10%" width="120%" height="130%"><feColorMatrix type="matrix" values="0 0 0 0 0  0 0 0 0 0  0 0 0 0 0  0 0 0 .4 0"></feColorMatrix> <feOffset dx="0" dy="1"></feOffset> <feGaussianBlur stdDeviation="0.5"></feGaussianBlur> <feComposite in="SourceGraphic"></feComposite></filter></defs><g fill="none" fill-rule="nonzero" stroke="none" stroke-width="none" stroke-linecap="butt" stroke-linejoin="miter" stroke-miterlimit="10" stroke-dasharray="" stroke-dashoffset="0" font-family="none" font-weight="none" font-size="none" text-anchor="none" style="mix-blend-mode: normal"><path d="M2,24c0,-12.15026 9.84974,-22 22,-22c12.15026,0 22,9.84974 22,22c0,12.15026 -9.84974,22 -22,22c-12.15026,0 -22,-9.84974 -22,-22z" id="base 1 5" fill="#009688" stroke-width="1"></path><path d="M14.80388,30.26508c0,0 0,0 0,0c-0.35417,-0.35417 -0.57399,-0.84267 -0.57399,-1.38003v-12.70114c0,-1.07471 0.87931,-1.95402 1.95402,-1.95402h5.86207l2.93103,2.93103h6.83908c0.53736,0 1.02586,0.21983 1.38003,0.57399l0,0l12.03852,12.03852c-2.03696,7.50979 -7.9514,13.42424 -15.4612,15.4612z" fill="url(#color-1)" stroke-width="1"></path><path d="M31.81609,17.16092h-8.91034l-0.85977,-2.93103h-5.86207c-1.07471,0 -1.95402,0.87931 -1.95402,1.95402v12.70114c0,1.07471 0.87931,1.95402 1.95402,1.95402h6.83908l0.97701,2.93103h7.81609c1.07471,0 1.95402,-0.87931 1.95402,-1.95402v-12.70114c0,-1.07471 -0.87931,-1.95402 -1.95402,-1.95402zM19.27615,26.52557c-2.20316,0 -3.99109,-1.79282 -3.99109,-3.99109c0,-2.19827 1.79282,-3.99109 3.99109,-3.99109c1.01609,0 1.93937,0.36149 2.67212,1.04052l0.06351,0.06351l-1.19195,1.15287l-0.05862,-0.05374c-0.27845,-0.26379 -0.76207,-0.57155 -1.48506,-0.57155c-1.27988,0 -2.3204,1.06006 -2.3204,2.36437c0,1.30431 1.04052,2.36437 2.3204,2.36437c1.3385,0 1.91983,-0.85488 2.07615,-1.42644h-2.15919v-1.51437h3.85919l0.01466,0.06839c0.03908,0.20517 0.05374,0.38592 0.05374,0.59109c-0.00489,2.30086 -1.58276,3.90316 -3.84454,3.90316zM25.17241,24.86465c0.3273,0.58621 0.72299,1.14799 1.16264,1.66092l-0.5227,0.51782zM25.92471,24.11236h-0.96724l-0.29799,-1.01609h3.90316c0,0 -0.33218,1.28477 -1.52414,2.67212c-0.5227,-0.60086 -0.88419,-1.18707 -1.11379,-1.65603zM32.7931,31.81609c0,0.53736 -0.43965,0.97701 -0.97701,0.97701h-6.83908l1.95402,-1.95402l-0.79626,-2.70144l0.89885,-0.89885l2.62327,2.62327l0.71322,-0.71322l-2.64281,-2.62327c0.87931,-1.01121 1.56322,-2.19827 1.87098,-3.42442h1.2408v-1.01609h-3.55143v-1.01609h-1.01609v1.01609h-1.91494l-1.16264,-3.94712h8.62212c0.53736,0 0.97701,0.43965 0.97701,0.97701z" fill="none" stroke-width="0"></path><path d="M33.77011,19.11495v12.70114c0,1.07471 -0.87931,1.95402 -1.95402,1.95402h-7.81609l-0.97701,-2.93103h-6.83908c-1.07471,0 -1.95402,-0.87931 -1.95402,-1.95402v-12.70114c0,-1.07471 0.87931,-1.95402 1.95402,-1.95402h5.86207l0.85977,2.93103h8.91034c1.07471,0 1.95402,0.87931 1.95402,1.95402zM23.12069,22.62241c0,-0.20517 -0.01466,-0.38592 -0.05374,-0.59109l-0.01466,-0.06839h-3.85919v1.51437h2.15919c-0.15632,0.57155 -0.73764,1.42644 -2.07615,1.42644c-1.27988,0 -2.3204,-1.06006 -2.3204,-2.36437c0,-1.30431 1.04052,-2.36437 2.3204,-2.36437c0.72299,0 1.20661,0.30776 1.48506,0.57155l0.05862,0.05374l1.19195,-1.15287l-0.06351,-0.06351c-0.73276,-0.67902 -1.65603,-1.04052 -2.67212,-1.04052c-2.19827,0 -3.99109,1.79282 -3.99109,3.99109c0,2.19827 1.78793,3.99109 3.99109,3.99109c2.26178,0 3.83965,-1.6023 3.84454,-3.90316zM25.81236,27.04339l0.5227,-0.51782c-0.43965,-0.51293 -0.83534,-1.07471 -1.16264,-1.66092zM27.0385,25.76839c1.19195,-1.38736 1.52414,-2.67212 1.52414,-2.67212h-3.90316l0.29799,1.01609h0.96724c0.2296,0.46897 0.59109,1.05517 1.11379,1.65603zM32.7931,19.11495c0,-0.53736 -0.43965,-0.97701 -0.97701,-0.97701h-8.62212l1.16264,3.94712h1.91494v-1.01609h1.01609v1.01609h3.55143v1.01609h-1.2408c-0.30776,1.22615 -0.99167,2.41322 -1.87098,3.42442l2.64281,2.62327l-0.71322,0.71322l-2.62327,-2.62327l-0.89885,0.89885l0.79626,2.70144l-1.95402,1.95402h6.83908c0.53736,0 0.97701,-0.43965 0.97701,-0.97701z" fill="#ffffff" stroke-width="0"></path><path d="M2,24c0,-12.15026 9.84974,-22 22,-22c12.15026,0 22,9.84974 22,22c0,12.15026 -9.84974,22 -22,22c-12.15026,0 -22,-9.84974 -22,-22z" id="base 1 1 1" fill="none" stroke-width="1"></path><g fill="#000000" stroke-width="1" font-family="Roboto, sans-serif" font-weight="400" font-size="14" text-anchor="start"></g><rect x="2" y="2" width="44" height="22" fill="none" stroke-width="1"></rect><path d="M2,24v-22h44v22z" fill="none" stroke-width="1"></path><path d="M2,24v-22h44v22z" fill="none" stroke-width="1"></path><path d="M2,24v-22h44v22z" fill="none" stroke-width="1"></path><path d="M2,24v-22h44v22z" fill="none" stroke-width="1"></path></g></svg>