<svg version="1.1" xmlns="http://www.w3.org/2000/svg" xmlns:xlink="http://www.w3.org/1999/xlink" width="48" height="48"><defs><linearGradient x1="14.22989" y1="14.22989" x2="54.98331" y2="54.98331" gradientUnits="userSpaceOnUse" id="color-1"><stop offset="0" stop-color="#000000" stop-opacity="0.3"></stop><stop offset="1" stop-color="#000000" stop-opacity="0"></stop></linearGradient><filter id="dropshadow-base"><feColorMatrix type="matrix" values="0 0 0 0 0  0 0 0 0 0  0 0 0 0 0  0 0 0 .8 0"></feColorMatrix> <feOffset dx="0" dy="1"></feOffset> <feGaussianBlur stdDeviation="1"></feGaussianBlur> <feComposite in="SourceGraphic"></feComposite></filter><filter id="dropshadow-banner" x="-10%" y="-10%" width="120%" height="130%"><feColorMatrix type="matrix" values="0 0 0 0 0  0 0 0 0 0  0 0 0 0 0  0 0 0 .4 0"></feColorMatrix> <feOffset dx="0" dy="1"></feOffset> <feGaussianBlur stdDeviation="0.5"></feGaussianBlur> <feComposite in="SourceGraphic"></feComposite></filter></defs><g fill="none" fill-rule="nonzero" stroke="none" stroke-width="none" stroke-linecap="butt" stroke-linejoin="miter" stroke-miterlimit="10" stroke-dasharray="" stroke-dashoffset="0" font-family="none" font-weight="none" font-size="none" text-anchor="none" style="mix-blend-mode: normal"><path d="M2,24c0,-12.15026 9.84974,-22 22,-22c12.15026,0 22,9.84974 22,22c0,12.15026 -9.84974,22 -22,22c-12.15026,0 -22,-9.84974 -22,-22z" id="base 1 5" fill="#f44336" stroke-width="1"></path><path d="M30.9093,17.0907l13.94249,13.94249c-2.18916,6.49278 -7.32582,11.62944 -13.8186,13.8186l-13.94249,-13.94249c-1.76778,-1.76778 -2.86081,-4.21031 -2.86081,-6.9093c0,-5.39799 4.37212,-9.77011 9.77011,-9.77011c2.69899,0 5.14152,1.09303 6.9093,2.86081z" fill="url(#color-1)" stroke-width="1"></path><path d="M22.04598,28.39655l5.86207,-4.39655l-5.86207,-4.39655zM24,14.22989c-5.39799,0 -9.77011,4.37212 -9.77011,9.77011c0,5.39799 4.37212,9.77011 9.77011,9.77011c5.39799,0 9.77011,-4.37212 9.77011,-9.77011c0,-5.39799 -4.37212,-9.77011 -9.77011,-9.77011zM24,31.81609c-4.30862,0 -7.81609,-3.50747 -7.81609,-7.81609c0,-4.30862 3.50747,-7.81609 7.81609,-7.81609c4.30862,0 7.81609,3.50747 7.81609,7.81609c0,4.30862 -3.50747,7.81609 -7.81609,7.81609z" fill="none" stroke-width="0"></path><path d="M22.04598,19.60345l5.86207,4.39655l-5.86207,4.39655zM33.77011,24c0,5.39799 -4.37212,9.77011 -9.77011,9.77011c-5.39799,0 -9.77011,-4.37212 -9.77011,-9.77011c0,-5.39799 4.37212,-9.77011 9.77011,-9.77011c5.39799,0 9.77011,4.37212 9.77011,9.77011zM31.81609,24c0,-4.30862 -3.50747,-7.81609 -7.81609,-7.81609c-4.30862,0 -7.81609,3.50747 -7.81609,7.81609c0,4.30862 3.50747,7.81609 7.81609,7.81609c4.30862,0 7.81609,-3.50747 7.81609,-7.81609z" fill="#ffffff" stroke-width="0"></path><path d="M2,24c0,-12.15026 9.84974,-22 22,-22c12.15026,0 22,9.84974 22,22c0,12.15026 -9.84974,22 -22,22c-12.15026,0 -22,-9.84974 -22,-22z" id="base 1 1 1" fill="none" stroke-width="1"></path><g fill="#000000" stroke-width="1" font-family="Roboto, sans-serif" font-weight="400" font-size="14" text-anchor="start"></g><rect x="2" y="2" width="44" height="22" fill="none" stroke-width="1"></rect><path d="M2,24v-22h44v22z" fill="none" stroke-width="1"></path><path d="M2,24v-22h44v22z" fill="none" stroke-width="1"></path><path d="M2,24v-22h44v22z" fill="none" stroke-width="1"></path><path d="M2,24v-22h44v22z" fill="none" stroke-width="1"></path></g></svg>